{"title":"DCI Banks S04 Xvid RB58","uid":9749375,"size":2473409792,"categoryP":"video","categoryS":"tv_shows","magnet":"?xt=urn:btih:74035816cf3cfcce10c47a6b69fd33db74290776&amp;dn=DCI+Banks+S04+Xvid+RB58&amp;tr=udp%3A%2F%2Ftracker.openbittorrent.com%3A80&amp;tr=udp%3A%2F%2Fopen.demonii.com%3A1337&amp;tr=udp%3A%2F%2Ftracker.coppersurfer.tk%3A6969&amp;tr=udp%3A%2F%2Fexodus.desync.com%3A6969","seeders":18,"leechers":2,"uploader":"RedBaron58","files":6,"time":1394643718,"description":"DCI Banks Series 4\n\nEpisode 1 &amp; 2 - Wednesday's Child Xvid\nEpisode 3 &amp; 4 - Piece of My Heart Xvid\nEpisode 5 &amp; 6 - Bad Boys Xvid\n &lt;a href=&quot;\nhttp://www.imdb.com/title/tt1652216/&quot; rel=&quot;nofollow&quot; target=&quot;_NEW&quot;&gt;\nhttp://www.imdb.com/title/tt1652216/&lt;/a&gt;\n\nIf you downloaded my previous DCI Banks S04E01 - E05 you will be only downloading Episode 6.\n\n\nPlease be patient My upload speed is limited, but I am online most the time and during the night.\nThank you for your kind comments and thumbs ups on my other torrents, your feedback is welcome.\n\n\nAbout the Episodes:\n\nWednesday's Child (Ep 1 &amp; Ep2)\n\nA strange man and woman turn up on the doorstep of Kyle Heath, an eleven-year-old local school boy,\nclaiming to be social workers having received a report of abuse against the child.\n\n\nPiece of My Heart (Ep3 &amp; Ep4)\n\nMatt Barber, whose father Jack is a respected high ranking policeman, and is now a London-based\njournalist is found murdered in a holiday chalet, owned by Liz Forbes.\n\n\nBad Boys (Ep5 &amp; Ep6)\n\nWhen the detective's old neighbour tells him she has found a gun in her teenage daughter's bedroom,\nhis first instinct is to quietly retrieve the weapon.\n\n\n\nI hope you enjoy.\n\n\nTechnical Ep1 (Ep2 to Ep6 Similar):\n\nGeneral\nComplete name : DCI Banks S04 RB58DCI Banks S04E01 Wednesdays Child pt 1 RB58.avi\nFormat : AVI\nFormat/Info : Audio Video Interleave\nFile size : 387 MiB\nDuration : 45mn 15s\nOverall bit rate : 1 196 Kbps\n\nVideo\nID : 0\nFormat : MPEG-4 Visual\nFormat profile : Advanced Simple@L4\nFormat settings, BVOP : 2\nFormat settings, QPel : No\nFormat settings, GMC : No warppoints\nFormat settings, Matrix : Default (H.263)\nCodec ID : DIVX\nCodec ID/Info : Project Mayo\nCodec ID/Hint : DivX 4\nDuration : 45mn 15s\nBit rate : 1 055 Kbps\nWidth : 704 pixels\nHeight : 396 pixels\nDisplay aspect ratio : 16:9\nFrame rate : 25.000 fps\nColor space : YUV\nChroma subsampling : 4:2:0\nBit depth : 8 bits\nScan type : Progressive\nCompression mode : Lossy\nBits/(Pixel*Frame) : 0.151\nStream size : 341 MiB (88%)\nWriting library : XviD 64\n\nAudio\nID : 1\nFormat : MPEG Audio\nFormat version : Version 1\nFormat profile : Layer 3\nCodec ID : 55\nCodec ID/Hint : MP3\nDuration : 45mn 14s\nSource duration : 45mn 14s\nBit rate mode : Constant\nBit rate : 128 Kbps\nChannel(s) : 2 channels\nSampling rate : 48.0 KHz\nCompression mode : Lossy\nStream size : 41.4 MiB (11%)\nAlignment : Aligned on interleaves\nInterleave, duration : 24 ms (0.60 video frame) ","torrent":{"xt":"urn:btih:74035816cf3cfcce10c47a6b69fd33db74290776","amp;dn":"DCI+Banks+S04+Xvid+RB58","amp;tr":["udp%3A%2F%2Ftracker.openbittorrent.com%3A80","udp%3A%2F%2Fopen.demonii.com%3A1337","udp%3A%2F%2Ftracker.coppersurfer.tk%3A6969","udp%3A%2F%2Fexodus.desync.com%3A6969"],"infoHash":"74035816cf3cfcce10c47a6b69fd33db74290776","infoHashBuffer":{"type":"Buffer","data":[116,3,88,22,207,60,252,206,16,196,122,107,105,253,51,219,116,41,7,118]},"announce":[],"urlList":[]}}